<?xml version="1.0" encoding="UTF-8" standalone="no"?>
<!DOCTYPE svg PUBLIC "-//W3C//DTD SVG 1.1//EN"
 "http://www.w3.org/Graphics/SVG/1.1/DTD/svg11.dtd">
<!-- Generated by graphviz version 2.38.0 (20140413.2041)
 -->
<!-- Title: babel Pages: 1 -->
<svg width="332pt" height="169pt"
 viewBox="0.00 0.00 332.00 169.00" xmlns="http://www.w3.org/2000/svg" xmlns:xlink="http://www.w3.org/1999/xlink">
<g id="graph0" class="graph" transform="scale(1 1) rotate(0) translate(4 165)">
<title>babel</title>
<polygon fill="white" stroke="none" points="-4,4 -4,-165 328,-165 328,4 -4,4"/>
<text text-anchor="middle" x="26.5" y="-145.8" font-family="Times New Roman,serif" font-size="14.00">(1 2 3)</text>
<!-- s04822fbc -->
<g id="node1" class="node"><title>s04822fbc</title>
<polygon fill="none" stroke="black" stroke-dasharray="5,2" points="0,-72.5 0,-118.5 54,-118.5 54,-72.5 0,-72.5"/>
<text text-anchor="middle" x="27" y="-103.3" font-family="Times New Roman,serif" font-size="14.00">0</text>
<polyline fill="none" stroke="black" stroke-dasharray="5,2" points="0,-95.5 54,-95.5 "/>
<text text-anchor="middle" x="27" y="-80.3" font-family="Times New Roman,serif" font-size="14.00">1</text>
</g>
<!-- s04822fc8 -->
<g id="node2" class="node"><title>s04822fc8</title>
<polygon fill="none" stroke="black" stroke-width="2" points="90,-101.5 90,-137.5 144,-137.5 144,-101.5 90,-101.5"/>
<text text-anchor="middle" x="117" y="-115.8" font-family="Times New Roman,serif" font-size="14.00">1</text>
</g>
<!-- s04822fbc&#45;&gt;s04822fc8 -->
<g id="edge1" class="edge"><title>s04822fbc:f0&#45;&gt;s04822fc8:f0</title>
<path fill="none" stroke="black" d="M54,-107.5C62.4698,-107.5 71.4687,-108.56 79.9345,-110.049"/>
<polygon fill="black" stroke="black" points="79.4343,-113.518 89.9251,-112.037 80.8003,-106.653 79.4343,-113.518"/>
</g>
<!-- s04822f9c -->
<g id="node3" class="node"><title>s04822f9c</title>
<polygon fill="none" stroke="black" points="90,-36.5 90,-82.5 144,-82.5 144,-36.5 90,-36.5"/>
<text text-anchor="middle" x="117" y="-67.3" font-family="Times New Roman,serif" font-size="14.00">0</text>
<polyline fill="none" stroke="black" points="90,-59.5 144,-59.5 "/>
<text text-anchor="middle" x="117" y="-44.3" font-family="Times New Roman,serif" font-size="14.00">1</text>
</g>
<!-- s04822fbc&#45;&gt;s04822f9c -->
<g id="edge2" class="edge"><title>s04822fbc:f1&#45;&gt;s04822f9c:f0</title>
<path fill="none" stroke="black" d="M54,-83.5C66.7809,-83.5 71.1793,-76.6086 79.8999,-73.2706"/>
<polygon fill="black" stroke="black" points="80.7546,-76.6743 90,-71.5 79.5458,-69.7794 80.7546,-76.6743"/>
</g>
<!-- s04822fa8 -->
<g id="node4" class="node"><title>s04822fa8</title>
<polygon fill="none" stroke="black" stroke-width="2" points="180,-65.5 180,-101.5 234,-101.5 234,-65.5 180,-65.5"/>
<text text-anchor="middle" x="207" y="-79.8" font-family="Times New Roman,serif" font-size="14.00">2</text>
</g>
<!-- s04822f9c&#45;&gt;s04822fa8 -->
<g id="edge3" class="edge"><title>s04822f9c:f0&#45;&gt;s04822fa8:f0</title>
<path fill="none" stroke="black" d="M144,-71.5C152.47,-71.5 161.469,-72.5596 169.935,-74.049"/>
<polygon fill="black" stroke="black" points="169.434,-77.518 179.925,-76.0367 170.8,-70.6526 169.434,-77.518"/>
</g>
<!-- s04822f7c -->
<g id="node5" class="node"><title>s04822f7c</title>
<polygon fill="none" stroke="black" points="180,-0.5 180,-46.5 234,-46.5 234,-0.5 180,-0.5"/>
<text text-anchor="middle" x="207" y="-31.3" font-family="Times New Roman,serif" font-size="14.00">0</text>
<polyline fill="none" stroke="black" points="180,-23.5 234,-23.5 "/>
<text text-anchor="middle" x="207" y="-8.3" font-family="Times New Roman,serif" font-size="14.00">1</text>
</g>
<!-- s04822f9c&#45;&gt;s04822f7c -->
<g id="edge4" class="edge"><title>s04822f9c:f1&#45;&gt;s04822f7c:f0</title>
<path fill="none" stroke="black" d="M144,-47.5C156.781,-47.5 161.179,-40.6086 169.9,-37.2706"/>
<polygon fill="black" stroke="black" points="170.755,-40.6743 180,-35.5 169.546,-33.7794 170.755,-40.6743"/>
</g>
<!-- s04822f88 -->
<g id="node6" class="node"><title>s04822f88</title>
<polygon fill="none" stroke="black" stroke-width="2" points="270,-17.5 270,-53.5 324,-53.5 324,-17.5 270,-17.5"/>
<text text-anchor="middle" x="297" y="-31.8" font-family="Times New Roman,serif" font-size="14.00">3</text>
</g>
<!-- s04822f7c&#45;&gt;s04822f88 -->
<g id="edge5" class="edge"><title>s04822f7c:f0&#45;&gt;s04822f88:f0</title>
<path fill="none" stroke="black" d="M234,-35.5C242.229,-35.5 251.062,-35.5 259.434,-35.5"/>
<polygon fill="black" stroke="black" points="259.711,-39.0001 269.711,-35.5 259.711,-32.0001 259.711,-39.0001"/>
</g>
</g>
</svg>
