<?xml version="1.0" encoding="UTF-8" standalone="no"?>
<!DOCTYPE svg PUBLIC "-//W3C//DTD SVG 1.1//EN"
 "http://www.w3.org/Graphics/SVG/1.1/DTD/svg11.dtd">
<!-- Generated by graphviz version 2.38.0 (20140413.2041)
 -->
<!-- Title: babel Pages: 1 -->
<svg width="969pt" height="512pt"
 viewBox="0.00 0.00 969.00 512.00" xmlns="http://www.w3.org/2000/svg" xmlns:xlink="http://www.w3.org/1999/xlink">
<g id="graph0" class="graph" transform="scale(1 1) rotate(0) translate(4 508)">
<title>babel</title>
<polygon fill="white" stroke="none" points="-4,4 -4,-508 965,-508 965,4 -4,4"/>
<text text-anchor="middle" x="149.5" y="-488.8" font-family="Times New Roman,serif" font-size="14.00">((&#39;foo&#39; 0x123) (&#39;bar&#39; 0x456) (&#39;baz&#39; 0x789)) ls2map !</text>
<!-- s04984010 -->
<g id="node1" class="node"><title>s04984010</title>
<polygon fill="none" stroke="black" points="0,-180.5 0,-272.5 70,-272.5 70,-180.5 0,-180.5"/>
<text text-anchor="middle" x="35" y="-257.3" font-family="Times New Roman,serif" font-size="14.00">a897520c</text>
<polyline fill="none" stroke="black" points="0,-249.5 70,-249.5 "/>
<text text-anchor="middle" x="35" y="-234.3" font-family="Times New Roman,serif" font-size="14.00">49a38104</text>
<polyline fill="none" stroke="black" points="0,-226.5 70,-226.5 "/>
<text text-anchor="middle" x="35" y="-211.3" font-family="Times New Roman,serif" font-size="14.00">583f7095</text>
<polyline fill="none" stroke="black" points="0,-203.5 70,-203.5 "/>
<text text-anchor="middle" x="35" y="-188.3" font-family="Times New Roman,serif" font-size="14.00">44c9db7f</text>
</g>
<!-- s04984024 -->
<g id="node2" class="node"><title>s04984024</title>
<polygon fill="none" stroke="black" points="106,-243.5 106,-279.5 160,-279.5 160,-243.5 106,-243.5"/>
<text text-anchor="middle" x="133" y="-257.8" font-family="Times New Roman,serif" font-size="14.00">0</text>
</g>
<!-- s04984010&#45;&gt;s04984024 -->
<g id="edge1" class="edge"><title>s04984010:f0&#45;&gt;s04984024:f0</title>
<path fill="none" stroke="black" d="M70,-261.5C81.7031,-261.5 94.6291,-261.5 105.711,-261.5"/>
</g>
<!-- s0498405c -->
<g id="node3" class="node"><title>s0498405c</title>
<polygon fill="none" stroke="black" points="196,-226.5 196,-272.5 250,-272.5 250,-226.5 196,-226.5"/>
<text text-anchor="middle" x="223" y="-257.3" font-family="Times New Roman,serif" font-size="14.00">0</text>
<polyline fill="none" stroke="black" points="196,-249.5 250,-249.5 "/>
<text text-anchor="middle" x="223" y="-234.3" font-family="Times New Roman,serif" font-size="14.00">1</text>
</g>
<!-- s04984024&#45;&gt;s0498405c -->
<g id="edge2" class="edge"><title>s04984024:f0&#45;&gt;s0498405c:f0</title>
<path fill="none" stroke="black" d="M160.289,-261.5C168.254,-261.5 177.172,-261.5 185.904,-261.5"/>
<polygon fill="black" stroke="black" points="186,-265 196,-261.5 186,-258 186,-265"/>
</g>
<!-- s04983a74 -->
<g id="node4" class="node"><title>s04983a74</title>
<polygon fill="none" stroke="black" points="294.5,-266.5 294.5,-312.5 348.5,-312.5 348.5,-266.5 294.5,-266.5"/>
<text text-anchor="middle" x="321.5" y="-297.3" font-family="Times New Roman,serif" font-size="14.00">0</text>
<polyline fill="none" stroke="black" points="294.5,-289.5 348.5,-289.5 "/>
<text text-anchor="middle" x="321.5" y="-274.3" font-family="Times New Roman,serif" font-size="14.00">1</text>
</g>
<!-- s0498405c&#45;&gt;s04983a74 -->
<g id="edge3" class="edge"><title>s0498405c:f0&#45;&gt;s04983a74:f0</title>
<path fill="none" stroke="black" d="M250,-261.5C272.161,-261.5 269.195,-289.977 283.504,-298.875"/>
<polygon fill="black" stroke="black" points="282.939,-302.346 293.5,-301.5 284.717,-295.575 282.939,-302.346"/>
</g>
<!-- s04983bf4 -->
<g id="node21" class="node"><title>s04983bf4</title>
<polygon fill="none" stroke="black" points="286,-117.5 286,-209.5 357,-209.5 357,-117.5 286,-117.5"/>
<text text-anchor="middle" x="321.5" y="-194.3" font-family="Times New Roman,serif" font-size="14.00">591589e0</text>
<polyline fill="none" stroke="black" points="286,-186.5 357,-186.5 "/>
<text text-anchor="middle" x="321.5" y="-171.3" font-family="Times New Roman,serif" font-size="14.00">1a9ec87a</text>
<polyline fill="none" stroke="black" points="286,-163.5 357,-163.5 "/>
<text text-anchor="middle" x="321.5" y="-148.3" font-family="Times New Roman,serif" font-size="14.00">78adc82</text>
<polyline fill="none" stroke="black" points="286,-140.5 357,-140.5 "/>
<text text-anchor="middle" x="321.5" y="-125.3" font-family="Times New Roman,serif" font-size="14.00">dbae9012</text>
</g>
<!-- s0498405c&#45;&gt;s04983bf4 -->
<g id="edge20" class="edge"><title>s0498405c:f1&#45;&gt;s04983bf4:f0</title>
<path fill="none" stroke="black" d="M250,-237.5C269.35,-237.5 265.306,-211.256 276.248,-201.825"/>
<polygon fill="black" stroke="black" points="277.665,-205.04 286,-198.5 275.406,-198.415 277.665,-205.04"/>
</g>
<!-- s04983dac -->
<g id="node5" class="node"><title>s04983dac</title>
<polygon fill="none" stroke="black" points="393,-307.5 393,-399.5 464,-399.5 464,-307.5 393,-307.5"/>
<text text-anchor="middle" x="428.5" y="-384.3" font-family="Times New Roman,serif" font-size="14.00">591589e0</text>
<polyline fill="none" stroke="black" points="393,-376.5 464,-376.5 "/>
<text text-anchor="middle" x="428.5" y="-361.3" font-family="Times New Roman,serif" font-size="14.00">1a9ec87a</text>
<polyline fill="none" stroke="black" points="393,-353.5 464,-353.5 "/>
<text text-anchor="middle" x="428.5" y="-338.3" font-family="Times New Roman,serif" font-size="14.00">78adc82</text>
<polyline fill="none" stroke="black" points="393,-330.5 464,-330.5 "/>
<text text-anchor="middle" x="428.5" y="-315.3" font-family="Times New Roman,serif" font-size="14.00">dbae9012</text>
</g>
<!-- s04983a74&#45;&gt;s04983dac -->
<g id="edge4" class="edge"><title>s04983a74:f0&#45;&gt;s04983dac:f0</title>
<path fill="none" stroke="black" d="M349.5,-301.5C388.678,-301.5 357.067,-372.952 382.972,-386.349"/>
<polygon fill="black" stroke="black" points="382.488,-389.825 393,-388.5 383.956,-382.981 382.488,-389.825"/>
</g>
<!-- s04983a30 -->
<g id="node13" class="node"><title>s04983a30</title>
<polygon fill="none" stroke="black" points="393,-196.5 393,-288.5 464,-288.5 464,-196.5 393,-196.5"/>
<text text-anchor="middle" x="428.5" y="-273.3" font-family="Times New Roman,serif" font-size="14.00">591589e0</text>
<polyline fill="none" stroke="black" points="393,-265.5 464,-265.5 "/>
<text text-anchor="middle" x="428.5" y="-250.3" font-family="Times New Roman,serif" font-size="14.00">1a9ec87a</text>
<polyline fill="none" stroke="black" points="393,-242.5 464,-242.5 "/>
<text text-anchor="middle" x="428.5" y="-227.3" font-family="Times New Roman,serif" font-size="14.00">78adc82</text>
<polyline fill="none" stroke="black" points="393,-219.5 464,-219.5 "/>
<text text-anchor="middle" x="428.5" y="-204.3" font-family="Times New Roman,serif" font-size="14.00">dbae9012</text>
</g>
<!-- s04983a74&#45;&gt;s04983a30 -->
<g id="edge12" class="edge"><title>s04983a74:f1&#45;&gt;s04983a30:f0</title>
<path fill="none" stroke="black" d="M349.5,-277.5C364.906,-277.5 371.105,-277.5 382.771,-277.5"/>
<polygon fill="black" stroke="black" points="383,-281 393,-277.5 383,-274 383,-281"/>
</g>
<!-- s04983dc0 -->
<g id="node6" class="node"><title>s04983dc0</title>
<polygon fill="none" stroke="black" points="500,-370.5 500,-406.5 554,-406.5 554,-370.5 500,-370.5"/>
<text text-anchor="middle" x="527" y="-384.8" font-family="Times New Roman,serif" font-size="14.00">0</text>
</g>
<!-- s04983dac&#45;&gt;s04983dc0 -->
<g id="edge5" class="edge"><title>s04983dac:f0&#45;&gt;s04983dc0:f0</title>
<path fill="none" stroke="black" d="M464,-388.5C475.703,-388.5 488.629,-388.5 499.711,-388.5"/>
</g>
<!-- s04983dcc -->
<g id="node7" class="node"><title>s04983dcc</title>
<polygon fill="none" stroke="black" points="598.5,-353.5 598.5,-399.5 652.5,-399.5 652.5,-353.5 598.5,-353.5"/>
<text text-anchor="middle" x="625.5" y="-384.3" font-family="Times New Roman,serif" font-size="14.00">0</text>
<polyline fill="none" stroke="black" points="598.5,-376.5 652.5,-376.5 "/>
<text text-anchor="middle" x="625.5" y="-361.3" font-family="Times New Roman,serif" font-size="14.00">1</text>
</g>
<!-- s04983dc0&#45;&gt;s04983dcc -->
<g id="edge6" class="edge"><title>s04983dc0:f0&#45;&gt;s04983dcc:f0</title>
<path fill="none" stroke="black" d="M554.117,-388.5C564.151,-388.5 575.857,-388.5 587.219,-388.5"/>
<polygon fill="black" stroke="black" points="587.5,-392 597.5,-388.5 587.5,-385 587.5,-392"/>
</g>
<!-- s04983e24 -->
<g id="node8" class="node"><title>s04983e24</title>
<polygon fill="none" stroke="black" stroke-width="2" points="697.5,-388.5 697.5,-480.5 768.5,-480.5 768.5,-388.5 697.5,-388.5"/>
<text text-anchor="middle" x="733" y="-465.3" font-family="Times New Roman,serif" font-size="14.00">a479b720</text>
<polyline fill="none" stroke="black" stroke-width="2" points="697.5,-457.5 768.5,-457.5 "/>
<text text-anchor="middle" x="733" y="-442.3" font-family="Times New Roman,serif" font-size="14.00">6d8d8f0e</text>
<polyline fill="none" stroke="black" stroke-width="2" points="697.5,-434.5 768.5,-434.5 "/>
<text text-anchor="middle" x="733" y="-419.3" font-family="Times New Roman,serif" font-size="14.00">15cb2f71</text>
<polyline fill="none" stroke="black" stroke-width="2" points="697.5,-411.5 768.5,-411.5 "/>
<text text-anchor="middle" x="733" y="-396.3" font-family="Times New Roman,serif" font-size="14.00">b87e13a2</text>
</g>
<!-- s04983dcc&#45;&gt;s04983e24 -->
<g id="edge7" class="edge"><title>s04983dcc:f0&#45;&gt;s04983e24:f0</title>
<path fill="none" stroke="black" d="M653.5,-388.5C690.372,-388.5 662.849,-454.452 687.144,-467.333"/>
<polygon fill="black" stroke="black" points="686.482,-470.771 697,-469.5 687.985,-463.935 686.482,-470.771"/>
</g>
<!-- s04983dd8 -->
<g id="node9" class="node"><title>s04983dd8</title>
<polygon fill="none" stroke="black" points="706,-323.5 706,-369.5 760,-369.5 760,-323.5 706,-323.5"/>
<text text-anchor="middle" x="733" y="-354.3" font-family="Times New Roman,serif" font-size="14.00">0</text>
<polyline fill="none" stroke="black" points="706,-346.5 760,-346.5 "/>
<text text-anchor="middle" x="733" y="-331.3" font-family="Times New Roman,serif" font-size="14.00">1</text>
</g>
<!-- s04983dcc&#45;&gt;s04983dd8 -->
<g id="edge8" class="edge"><title>s04983dcc:f1&#45;&gt;s04983dd8:f0</title>
<path fill="none" stroke="black" d="M653.5,-364.5C672.763,-364.5 679.706,-360.307 694.926,-358.932"/>
<polygon fill="black" stroke="black" points="695.159,-362.425 705,-358.5 694.859,-355.431 695.159,-362.425"/>
</g>
<!-- s04983e04 -->
<g id="node10" class="node"><title>s04983e04</title>
<polygon fill="none" stroke="black" stroke-width="2" points="805,-343.5 805,-389.5 871,-389.5 871,-343.5 805,-343.5"/>
<text text-anchor="middle" x="838" y="-374.3" font-family="Times New Roman,serif" font-size="14.00">6f6f66</text>
<polyline fill="none" stroke="black" stroke-width="2" points="805,-366.5 871,-366.5 "/>
<text text-anchor="middle" x="838" y="-351.3" font-family="Times New Roman,serif" font-size="14.00">ff000000</text>
</g>
<!-- s04983dd8&#45;&gt;s04983e04 -->
<g id="edge9" class="edge"><title>s04983dd8:f0&#45;&gt;s04983e04:f0</title>
<path fill="none" stroke="black" d="M761,-358.5C778.453,-358.5 782.411,-371.703 794.804,-376.654"/>
<polygon fill="black" stroke="black" points="794.536,-380.163 805,-378.5 795.783,-373.275 794.536,-380.163"/>
</g>
<!-- s04983de4 -->
<g id="node11" class="node"><title>s04983de4</title>
<polygon fill="none" stroke="black" points="811,-278.5 811,-324.5 865,-324.5 865,-278.5 811,-278.5"/>
<text text-anchor="middle" x="838" y="-309.3" font-family="Times New Roman,serif" font-size="14.00">0</text>
<polyline fill="none" stroke="black" points="811,-301.5 865,-301.5 "/>
<text text-anchor="middle" x="838" y="-286.3" font-family="Times New Roman,serif" font-size="14.00">1</text>
</g>
<!-- s04983dd8&#45;&gt;s04983de4 -->
<g id="edge10" class="edge"><title>s04983dd8:f1&#45;&gt;s04983de4:f0</title>
<path fill="none" stroke="black" d="M761,-334.5C780.806,-334.5 785.183,-319.825 799.926,-315.01"/>
<polygon fill="black" stroke="black" points="800.629,-318.444 810,-313.5 799.592,-311.521 800.629,-318.444"/>
</g>
<!-- s04984374 -->
<g id="node12" class="node"><title>s04984374</title>
<polygon fill="none" stroke="black" stroke-width="2" points="907,-295.5 907,-331.5 961,-331.5 961,-295.5 907,-295.5"/>
<text text-anchor="middle" x="934" y="-309.8" font-family="Times New Roman,serif" font-size="14.00">123</text>
</g>
<!-- s04983de4&#45;&gt;s04984374 -->
<g id="edge11" class="edge"><title>s04983de4:f0&#45;&gt;s04984374:f0</title>
<path fill="none" stroke="black" d="M866,-313.5C875.989,-313.5 886.803,-313.5 896.805,-313.5"/>
<polygon fill="black" stroke="black" points="896.867,-317 906.867,-313.5 896.867,-310 896.867,-317"/>
</g>
<!-- s04983a44 -->
<g id="node14" class="node"><title>s04983a44</title>
<polygon fill="none" stroke="black" points="500,-259.5 500,-295.5 554,-295.5 554,-259.5 500,-259.5"/>
<text text-anchor="middle" x="527" y="-273.8" font-family="Times New Roman,serif" font-size="14.00">0</text>
</g>
<!-- s04983a30&#45;&gt;s04983a44 -->
<g id="edge13" class="edge"><title>s04983a30:f0&#45;&gt;s04983a44:f0</title>
<path fill="none" stroke="black" d="M464,-277.5C475.703,-277.5 488.629,-277.5 499.711,-277.5"/>
</g>
<!-- s04983a50 -->
<g id="node15" class="node"><title>s04983a50</title>
<polygon fill="none" stroke="black" points="598.5,-242.5 598.5,-288.5 652.5,-288.5 652.5,-242.5 598.5,-242.5"/>
<text text-anchor="middle" x="625.5" y="-273.3" font-family="Times New Roman,serif" font-size="14.00">0</text>
<polyline fill="none" stroke="black" points="598.5,-265.5 652.5,-265.5 "/>
<text text-anchor="middle" x="625.5" y="-250.3" font-family="Times New Roman,serif" font-size="14.00">1</text>
</g>
<!-- s04983a44&#45;&gt;s04983a50 -->
<g id="edge14" class="edge"><title>s04983a44:f0&#45;&gt;s04983a50:f0</title>
<path fill="none" stroke="black" d="M554.117,-277.5C564.151,-277.5 575.857,-277.5 587.219,-277.5"/>
<polygon fill="black" stroke="black" points="587.5,-281 597.5,-277.5 587.5,-274 587.5,-281"/>
</g>
<!-- s04983ab4 -->
<g id="node16" class="node"><title>s04983ab4</title>
<polygon fill="none" stroke="black" stroke-width="2" points="697,-201.5 697,-293.5 769,-293.5 769,-201.5 697,-201.5"/>
<text text-anchor="middle" x="733" y="-278.3" font-family="Times New Roman,serif" font-size="14.00">7b230d72</text>
<polyline fill="none" stroke="black" stroke-width="2" points="697,-270.5 769,-270.5 "/>
<text text-anchor="middle" x="733" y="-255.3" font-family="Times New Roman,serif" font-size="14.00">307f4576</text>
<polyline fill="none" stroke="black" stroke-width="2" points="697,-247.5 769,-247.5 "/>
<text text-anchor="middle" x="733" y="-232.3" font-family="Times New Roman,serif" font-size="14.00">98305e48</text>
<polyline fill="none" stroke="black" stroke-width="2" points="697,-224.5 769,-224.5 "/>
<text text-anchor="middle" x="733" y="-209.3" font-family="Times New Roman,serif" font-size="14.00">c01208d2</text>
</g>
<!-- s04983a50&#45;&gt;s04983ab4 -->
<g id="edge15" class="edge"><title>s04983a50:f0&#45;&gt;s04983ab4:f0</title>
<path fill="none" stroke="black" d="M653.5,-277.5C669.008,-277.5 675.065,-280.675 686.734,-281.965"/>
<polygon fill="black" stroke="black" points="686.831,-285.475 697,-282.5 687.196,-278.484 686.831,-285.475"/>
</g>
<!-- s04983a5c -->
<g id="node17" class="node"><title>s04983a5c</title>
<polygon fill="none" stroke="black" points="706,-136.5 706,-182.5 760,-182.5 760,-136.5 706,-136.5"/>
<text text-anchor="middle" x="733" y="-167.3" font-family="Times New Roman,serif" font-size="14.00">0</text>
<polyline fill="none" stroke="black" points="706,-159.5 760,-159.5 "/>
<text text-anchor="middle" x="733" y="-144.3" font-family="Times New Roman,serif" font-size="14.00">1</text>
</g>
<!-- s04983a50&#45;&gt;s04983a5c -->
<g id="edge16" class="edge"><title>s04983a50:f1&#45;&gt;s04983a5c:f0</title>
<path fill="none" stroke="black" d="M653.5,-253.5C692.669,-253.5 667.55,-185.572 695.167,-173.367"/>
<polygon fill="black" stroke="black" points="695.828,-176.804 705,-171.5 694.523,-169.927 695.828,-176.804"/>
</g>
<!-- s04983a94 -->
<g id="node18" class="node"><title>s04983a94</title>
<polygon fill="none" stroke="black" stroke-width="2" points="805,-160.5 805,-206.5 871,-206.5 871,-160.5 805,-160.5"/>
<text text-anchor="middle" x="838" y="-191.3" font-family="Times New Roman,serif" font-size="14.00">7a6162</text>
<polyline fill="none" stroke="black" stroke-width="2" points="805,-183.5 871,-183.5 "/>
<text text-anchor="middle" x="838" y="-168.3" font-family="Times New Roman,serif" font-size="14.00">ff000000</text>
</g>
<!-- s04983a5c&#45;&gt;s04983a94 -->
<g id="edge17" class="edge"><title>s04983a5c:f0&#45;&gt;s04983a94:f0</title>
<path fill="none" stroke="black" d="M761,-171.5C779.273,-171.5 782.186,-187.65 794.938,-193.454"/>
<polygon fill="black" stroke="black" points="794.503,-196.937 805,-195.5 795.898,-190.077 794.503,-196.937"/>
</g>
<!-- s04983a68 -->
<g id="node19" class="node"><title>s04983a68</title>
<polygon fill="none" stroke="black" points="811,-95.5 811,-141.5 865,-141.5 865,-95.5 811,-95.5"/>
<text text-anchor="middle" x="838" y="-126.3" font-family="Times New Roman,serif" font-size="14.00">0</text>
<polyline fill="none" stroke="black" points="811,-118.5 865,-118.5 "/>
<text text-anchor="middle" x="838" y="-103.3" font-family="Times New Roman,serif" font-size="14.00">1</text>
</g>
<!-- s04983a5c&#45;&gt;s04983a68 -->
<g id="edge18" class="edge"><title>s04983a5c:f1&#45;&gt;s04983a68:f0</title>
<path fill="none" stroke="black" d="M761,-147.5C780.089,-147.5 785.357,-135.842 799.696,-131.834"/>
<polygon fill="black" stroke="black" points="800.532,-135.255 810,-130.5 799.633,-128.313 800.532,-135.255"/>
</g>
<!-- s049842e4 -->
<g id="node20" class="node"><title>s049842e4</title>
<polygon fill="none" stroke="black" stroke-width="2" points="907,-112.5 907,-148.5 961,-148.5 961,-112.5 907,-112.5"/>
<text text-anchor="middle" x="934" y="-126.8" font-family="Times New Roman,serif" font-size="14.00">789</text>
</g>
<!-- s04983a68&#45;&gt;s049842e4 -->
<g id="edge19" class="edge"><title>s04983a68:f0&#45;&gt;s049842e4:f0</title>
<path fill="none" stroke="black" d="M866,-130.5C875.989,-130.5 886.803,-130.5 896.805,-130.5"/>
<polygon fill="black" stroke="black" points="896.867,-134 906.867,-130.5 896.867,-127 896.867,-134"/>
</g>
<!-- s04983c08 -->
<g id="node22" class="node"><title>s04983c08</title>
<polygon fill="none" stroke="black" points="401.5,-141.5 401.5,-177.5 455.5,-177.5 455.5,-141.5 401.5,-141.5"/>
<text text-anchor="middle" x="428.5" y="-155.8" font-family="Times New Roman,serif" font-size="14.00">0</text>
</g>
<!-- s04983bf4&#45;&gt;s04983c08 -->
<g id="edge21" class="edge"><title>s04983bf4:f0&#45;&gt;s04983c08:f0</title>
<path fill="none" stroke="black" d="M357,-198.5C361.984,-198.5 383.168,-186.669 401.195,-176.04"/>
</g>
<!-- s04983c14 -->
<g id="node23" class="node"><title>s04983c14</title>
<polygon fill="none" stroke="black" points="500,-124.5 500,-170.5 554,-170.5 554,-124.5 500,-124.5"/>
<text text-anchor="middle" x="527" y="-155.3" font-family="Times New Roman,serif" font-size="14.00">0</text>
<polyline fill="none" stroke="black" points="500,-147.5 554,-147.5 "/>
<text text-anchor="middle" x="527" y="-132.3" font-family="Times New Roman,serif" font-size="14.00">1</text>
</g>
<!-- s04983c08&#45;&gt;s04983c14 -->
<g id="edge22" class="edge"><title>s04983c08:f0&#45;&gt;s04983c14:f0</title>
<path fill="none" stroke="black" d="M455.662,-159.5C465.991,-159.5 478.103,-159.5 489.839,-159.5"/>
<polygon fill="black" stroke="black" points="490,-163 500,-159.5 490,-156 490,-163"/>
</g>
<!-- s04983c6c -->
<g id="node24" class="node"><title>s04983c6c</title>
<polygon fill="none" stroke="black" stroke-width="2" points="590,-109.5 590,-201.5 661,-201.5 661,-109.5 590,-109.5"/>
<text text-anchor="middle" x="625.5" y="-186.3" font-family="Times New Roman,serif" font-size="14.00">a5b49fe9</text>
<polyline fill="none" stroke="black" stroke-width="2" points="590,-178.5 661,-178.5 "/>
<text text-anchor="middle" x="625.5" y="-163.3" font-family="Times New Roman,serif" font-size="14.00">2826ffed</text>
<polyline fill="none" stroke="black" stroke-width="2" points="590,-155.5 661,-155.5 "/>
<text text-anchor="middle" x="625.5" y="-140.3" font-family="Times New Roman,serif" font-size="14.00">78e1c638</text>
<polyline fill="none" stroke="black" stroke-width="2" points="590,-132.5 661,-132.5 "/>
<text text-anchor="middle" x="625.5" y="-117.3" font-family="Times New Roman,serif" font-size="14.00">b4e21669</text>
</g>
<!-- s04983c14&#45;&gt;s04983c6c -->
<g id="edge23" class="edge"><title>s04983c14:f0&#45;&gt;s04983c6c:f0</title>
<path fill="none" stroke="black" d="M554,-159.5C570.991,-159.5 570.276,-179.573 580.35,-187.414"/>
<polygon fill="black" stroke="black" points="579.409,-190.788 590,-190.5 581.541,-184.121 579.409,-190.788"/>
</g>
<!-- s04983c20 -->
<g id="node25" class="node"><title>s04983c20</title>
<polygon fill="none" stroke="black" points="598.5,-44.5 598.5,-90.5 652.5,-90.5 652.5,-44.5 598.5,-44.5"/>
<text text-anchor="middle" x="625.5" y="-75.3" font-family="Times New Roman,serif" font-size="14.00">0</text>
<polyline fill="none" stroke="black" points="598.5,-67.5 652.5,-67.5 "/>
<text text-anchor="middle" x="625.5" y="-52.3" font-family="Times New Roman,serif" font-size="14.00">1</text>
</g>
<!-- s04983c14&#45;&gt;s04983c20 -->
<g id="edge24" class="edge"><title>s04983c14:f1&#45;&gt;s04983c20:f0</title>
<path fill="none" stroke="black" d="M554,-135.5C581.33,-135.5 570.272,-93.3872 587.405,-82.201"/>
<polygon fill="black" stroke="black" points="588.744,-85.4658 597.5,-79.5 586.935,-78.7037 588.744,-85.4658"/>
</g>
<!-- s04983c4c -->
<g id="node26" class="node"><title>s04983c4c</title>
<polygon fill="none" stroke="black" stroke-width="2" points="700,-65.5 700,-111.5 766,-111.5 766,-65.5 700,-65.5"/>
<text text-anchor="middle" x="733" y="-96.3" font-family="Times New Roman,serif" font-size="14.00">726162</text>
<polyline fill="none" stroke="black" stroke-width="2" points="700,-88.5 766,-88.5 "/>
<text text-anchor="middle" x="733" y="-73.3" font-family="Times New Roman,serif" font-size="14.00">ff000000</text>
</g>
<!-- s04983c20&#45;&gt;s04983c4c -->
<g id="edge25" class="edge"><title>s04983c20:f0&#45;&gt;s04983c4c:f0</title>
<path fill="none" stroke="black" d="M653.5,-79.5C671.77,-79.5 675.696,-93.6312 688.811,-98.7096"/>
<polygon fill="black" stroke="black" points="688.545,-102.216 699,-100.5 689.757,-95.322 688.545,-102.216"/>
</g>
<!-- s04983c2c -->
<g id="node27" class="node"><title>s04983c2c</title>
<polygon fill="none" stroke="black" points="706,-0.5 706,-46.5 760,-46.5 760,-0.5 706,-0.5"/>
<text text-anchor="middle" x="733" y="-31.3" font-family="Times New Roman,serif" font-size="14.00">0</text>
<polyline fill="none" stroke="black" points="706,-23.5 760,-23.5 "/>
<text text-anchor="middle" x="733" y="-8.3" font-family="Times New Roman,serif" font-size="14.00">1</text>
</g>
<!-- s04983c20&#45;&gt;s04983c2c -->
<g id="edge26" class="edge"><title>s04983c20:f1&#45;&gt;s04983c2c:f0</title>
<path fill="none" stroke="black" d="M653.5,-55.5C674.218,-55.5 679.157,-41.2617 694.944,-36.8123"/>
<polygon fill="black" stroke="black" points="695.537,-40.2647 705,-35.5 694.631,-33.3235 695.537,-40.2647"/>
</g>
<!-- s0498432c -->
<g id="node28" class="node"><title>s0498432c</title>
<polygon fill="none" stroke="black" stroke-width="2" points="811,-17.5 811,-53.5 865,-53.5 865,-17.5 811,-17.5"/>
<text text-anchor="middle" x="838" y="-31.8" font-family="Times New Roman,serif" font-size="14.00">456</text>
</g>
<!-- s04983c2c&#45;&gt;s0498432c -->
<g id="edge27" class="edge"><title>s04983c2c:f0&#45;&gt;s0498432c:f0</title>
<path fill="none" stroke="black" d="M761,-35.5C773.95,-35.5 788.126,-35.5 800.745,-35.5"/>
<polygon fill="black" stroke="black" points="800.917,-39.0001 810.917,-35.5 800.917,-32.0001 800.917,-39.0001"/>
</g>
</g>
</svg>
