<?xml version="1.0" encoding="UTF-8" standalone="no"?>
<!DOCTYPE svg PUBLIC "-//W3C//DTD SVG 1.1//EN"
 "http://www.w3.org/Graphics/SVG/1.1/DTD/svg11.dtd">
<!-- Generated by graphviz version 2.38.0 (20140413.2041)
 -->
<!-- Title: babel Pages: 1 -->
<svg width="152pt" height="178pt"
 viewBox="0.00 0.00 152.00 178.00" xmlns="http://www.w3.org/2000/svg" xmlns:xlink="http://www.w3.org/1999/xlink">
<g id="graph0" class="graph" transform="scale(1 1) rotate(0) translate(4 174)">
<title>babel</title>
<polygon fill="white" stroke="none" points="-4,4 -4,-174 148,-174 148,4 -4,4"/>
<text text-anchor="middle" x="36.5" y="-154.8" font-family="Times New Roman,serif" font-size="14.00">[ptr 1 2 3]</text>
<!-- s046fcf40 -->
<g id="node1" class="node"><title>s046fcf40</title>
<polygon fill="none" stroke="black" stroke-dasharray="5,2" points="0,-39 0,-108 54,-108 54,-39 0,-39"/>
<text text-anchor="middle" x="27" y="-92.8" font-family="Times New Roman,serif" font-size="14.00">0</text>
<polyline fill="none" stroke="black" stroke-dasharray="5,2" points="0,-85 54,-85 "/>
<text text-anchor="middle" x="27" y="-69.8" font-family="Times New Roman,serif" font-size="14.00">1</text>
<polyline fill="none" stroke="black" stroke-dasharray="5,2" points="0,-62 54,-62 "/>
<text text-anchor="middle" x="27" y="-46.8" font-family="Times New Roman,serif" font-size="14.00">2</text>
</g>
<!-- s046fcf9c -->
<g id="node2" class="node"><title>s046fcf9c</title>
<polygon fill="none" stroke="black" stroke-width="2" points="90,-110.5 90,-146.5 144,-146.5 144,-110.5 90,-110.5"/>
<text text-anchor="middle" x="117" y="-124.8" font-family="Times New Roman,serif" font-size="14.00">1</text>
</g>
<!-- s046fcf40&#45;&gt;s046fcf9c -->
<g id="edge1" class="edge"><title>s046fcf40:f0&#45;&gt;s046fcf9c:f0</title>
<path fill="none" stroke="black" d="M54,-96.5C59.8942,-96.5 70.2401,-101.009 80.8652,-106.641"/>
<polygon fill="black" stroke="black" points="79.3195,-109.786 89.7643,-111.563 82.7072,-103.661 79.3195,-109.786"/>
</g>
<!-- s046fcf7c -->
<g id="node3" class="node"><title>s046fcf7c</title>
<polygon fill="none" stroke="black" stroke-width="2" points="90,-55.5 90,-91.5 144,-91.5 144,-55.5 90,-55.5"/>
<text text-anchor="middle" x="117" y="-69.8" font-family="Times New Roman,serif" font-size="14.00">2</text>
</g>
<!-- s046fcf40&#45;&gt;s046fcf7c -->
<g id="edge2" class="edge"><title>s046fcf40:f1&#45;&gt;s046fcf7c:f0</title>
<path fill="none" stroke="black" d="M54,-73.5C62.2288,-73.5 71.0621,-73.5 79.434,-73.5"/>
<polygon fill="black" stroke="black" points="79.7113,-77.0001 89.7113,-73.5 79.7112,-70.0001 79.7113,-77.0001"/>
</g>
<!-- s046fcf5c -->
<g id="node4" class="node"><title>s046fcf5c</title>
<polygon fill="none" stroke="black" stroke-width="2" points="90,-0.5 90,-36.5 144,-36.5 144,-0.5 90,-0.5"/>
<text text-anchor="middle" x="117" y="-14.8" font-family="Times New Roman,serif" font-size="14.00">3</text>
</g>
<!-- s046fcf40&#45;&gt;s046fcf5c -->
<g id="edge3" class="edge"><title>s046fcf40:f2&#45;&gt;s046fcf5c:f0</title>
<path fill="none" stroke="black" d="M54,-50.5C59.8942,-50.5 70.2401,-45.9912 80.8652,-40.3585"/>
<polygon fill="black" stroke="black" points="82.7072,-43.3394 89.7643,-35.437 79.3195,-37.2138 82.7072,-43.3394"/>
</g>
</g>
</svg>
