<?xml version="1.0" encoding="UTF-8" standalone="no"?>
<!DOCTYPE svg PUBLIC "-//W3C//DTD SVG 1.1//EN"
 "http://www.w3.org/Graphics/SVG/1.1/DTD/svg11.dtd">
<!-- Generated by graphviz version 2.38.0 (20140413.2041)
 -->
<!-- Title: babel Pages: 1 -->
<svg width="164pt" height="208pt"
 viewBox="0.00 0.00 164.00 208.00" xmlns="http://www.w3.org/2000/svg" xmlns:xlink="http://www.w3.org/1999/xlink">
<g id="graph0" class="graph" transform="scale(1 1) rotate(0) translate(4 204)">
<title>babel</title>
<polygon fill="white" stroke="none" points="-4,4 -4,-204 160,-204 160,4 -4,4"/>
<text text-anchor="middle" x="53" y="-184.8" font-family="Times New Roman,serif" font-size="14.00">[&#39;abc&#39; &#39;def&#39; &#39;ghi&#39;]</text>
<!-- s04932ec4 -->
<g id="node1" class="node"><title>s04932ec4</title>
<polygon fill="none" stroke="black" stroke-dasharray="5,2" points="0,-66 0,-135 54,-135 54,-66 0,-66"/>
<text text-anchor="middle" x="27" y="-119.8" font-family="Times New Roman,serif" font-size="14.00">0</text>
<polyline fill="none" stroke="black" stroke-dasharray="5,2" points="0,-112 54,-112 "/>
<text text-anchor="middle" x="27" y="-96.8" font-family="Times New Roman,serif" font-size="14.00">1</text>
<polyline fill="none" stroke="black" stroke-dasharray="5,2" points="0,-89 54,-89 "/>
<text text-anchor="middle" x="27" y="-73.8" font-family="Times New Roman,serif" font-size="14.00">2</text>
</g>
<!-- s04932f10 -->
<g id="node2" class="node"><title>s04932f10</title>
<polygon fill="none" stroke="black" stroke-width="2" points="90,-130.5 90,-176.5 156,-176.5 156,-130.5 90,-130.5"/>
<text text-anchor="middle" x="123" y="-161.3" font-family="Times New Roman,serif" font-size="14.00">636261</text>
<polyline fill="none" stroke="black" stroke-width="2" points="90,-153.5 156,-153.5 "/>
<text text-anchor="middle" x="123" y="-138.3" font-family="Times New Roman,serif" font-size="14.00">ff000000</text>
</g>
<!-- s04932ec4&#45;&gt;s04932f10 -->
<g id="edge1" class="edge"><title>s04932ec4:f0&#45;&gt;s04932f10:f0</title>
<path fill="none" stroke="black" d="M54,-123.5C74.3598,-123.5 68.8267,-152.303 80.2858,-162.204"/>
<polygon fill="black" stroke="black" points="79.4056,-165.602 90,-165.5 81.6546,-158.973 79.4056,-165.602"/>
</g>
<!-- s04932ef8 -->
<g id="node3" class="node"><title>s04932ef8</title>
<polygon fill="none" stroke="black" stroke-width="2" points="90,-65.5 90,-111.5 156,-111.5 156,-65.5 90,-65.5"/>
<text text-anchor="middle" x="123" y="-96.3" font-family="Times New Roman,serif" font-size="14.00">666564</text>
<polyline fill="none" stroke="black" stroke-width="2" points="90,-88.5 156,-88.5 "/>
<text text-anchor="middle" x="123" y="-73.3" font-family="Times New Roman,serif" font-size="14.00">ff000000</text>
</g>
<!-- s04932ec4&#45;&gt;s04932ef8 -->
<g id="edge2" class="edge"><title>s04932ec4:f1&#45;&gt;s04932ef8:f0</title>
<path fill="none" stroke="black" d="M54,-100.5C66,-100.5 71.25,-100.5 79.875,-100.5"/>
<polygon fill="black" stroke="black" points="80,-104 90,-100.5 80,-97.0001 80,-104"/>
</g>
<!-- s04932ee0 -->
<g id="node4" class="node"><title>s04932ee0</title>
<polygon fill="none" stroke="black" stroke-width="2" points="90,-0.5 90,-46.5 156,-46.5 156,-0.5 90,-0.5"/>
<text text-anchor="middle" x="123" y="-31.3" font-family="Times New Roman,serif" font-size="14.00">696867</text>
<polyline fill="none" stroke="black" stroke-width="2" points="90,-23.5 156,-23.5 "/>
<text text-anchor="middle" x="123" y="-8.3" font-family="Times New Roman,serif" font-size="14.00">ff000000</text>
</g>
<!-- s04932ec4&#45;&gt;s04932ee0 -->
<g id="edge3" class="edge"><title>s04932ec4:f2&#45;&gt;s04932ee0:f0</title>
<path fill="none" stroke="black" d="M54,-77.5C74.3598,-77.5 68.8267,-48.6968 80.2858,-38.7957"/>
<polygon fill="black" stroke="black" points="81.6546,-42.0273 90,-35.5 79.4056,-35.3984 81.6546,-42.0273"/>
</g>
</g>
</svg>
