<?xml version="1.0" encoding="UTF-8" standalone="no"?>
<!DOCTYPE svg PUBLIC "-//W3C//DTD SVG 1.1//EN"
 "http://www.w3.org/Graphics/SVG/1.1/DTD/svg11.dtd">
<!-- Generated by graphviz version 2.38.0 (20140413.2041)
 -->
<!-- Title: babel Pages: 1 -->
<svg width="259pt" height="131pt"
 viewBox="0.00 0.00 259.00 131.00" xmlns="http://www.w3.org/2000/svg" xmlns:xlink="http://www.w3.org/1999/xlink">
<g id="graph0" class="graph" transform="scale(1 1) rotate(0) translate(4 127)">
<title>babel</title>
<polygon fill="white" stroke="none" points="-4,4 -4,-127 255,-127 255,4 -4,4"/>
<text text-anchor="middle" x="61" y="-107.8" font-family="Times New Roman,serif" font-size="14.00">[tag &#39;foo&#39; val 1 2 3]</text>
<!-- s04825e60 -->
<g id="node1" class="node"><title>s04825e60</title>
<polygon fill="none" stroke="black" points="0,-0.5 0,-92.5 71,-92.5 71,-0.5 0,-0.5"/>
<text text-anchor="middle" x="35.5" y="-77.3" font-family="Times New Roman,serif" font-size="14.00">a479b720</text>
<polyline fill="none" stroke="black" points="0,-69.5 71,-69.5 "/>
<text text-anchor="middle" x="35.5" y="-54.3" font-family="Times New Roman,serif" font-size="14.00">6d8d8f0e</text>
<polyline fill="none" stroke="black" points="0,-46.5 71,-46.5 "/>
<text text-anchor="middle" x="35.5" y="-31.3" font-family="Times New Roman,serif" font-size="14.00">15cb2f71</text>
<polyline fill="none" stroke="black" points="0,-23.5 71,-23.5 "/>
<text text-anchor="middle" x="35.5" y="-8.3" font-family="Times New Roman,serif" font-size="14.00">b87e13a2</text>
</g>
<!-- s04825e74 -->
<g id="node2" class="node"><title>s04825e74</title>
<polygon fill="none" stroke="black" points="107,-63.5 107,-99.5 161,-99.5 161,-63.5 107,-63.5"/>
<text text-anchor="middle" x="134" y="-77.8" font-family="Times New Roman,serif" font-size="14.00">0</text>
</g>
<!-- s04825e60&#45;&gt;s04825e74 -->
<g id="edge1" class="edge"><title>s04825e60:f0&#45;&gt;s04825e74:f0</title>
<path fill="none" stroke="black" d="M71,-81.5C82.7031,-81.5 95.6291,-81.5 106.711,-81.5"/>
</g>
<!-- s04825e80 -->
<g id="node3" class="node"><title>s04825e80</title>
<polygon fill="none" stroke="black" stroke-width="2" points="197,-24 197,-93 251,-93 251,-24 197,-24"/>
<text text-anchor="middle" x="224" y="-77.8" font-family="Times New Roman,serif" font-size="14.00">1</text>
<polyline fill="none" stroke="black" stroke-width="2" points="197,-70 251,-70 "/>
<text text-anchor="middle" x="224" y="-54.8" font-family="Times New Roman,serif" font-size="14.00">2</text>
<polyline fill="none" stroke="black" stroke-width="2" points="197,-47 251,-47 "/>
<text text-anchor="middle" x="224" y="-31.8" font-family="Times New Roman,serif" font-size="14.00">3</text>
</g>
<!-- s04825e74&#45;&gt;s04825e80 -->
<g id="edge2" class="edge"><title>s04825e74:f0&#45;&gt;s04825e80:f0</title>
<path fill="none" stroke="black" d="M161.289,-81.5C169.254,-81.5 178.172,-81.5 186.904,-81.5"/>
<polygon fill="black" stroke="black" points="187,-85.0001 197,-81.5 187,-78.0001 187,-85.0001"/>
</g>
</g>
</svg>
